<svg width="100" height="100" viewBox="0 0 1093 859" fill="none" xmlns="http://www.w3.org/2000/svg">
<rect x="173" y="49" width="639" height="490" fill="#120101"/>
<rect x="188.057" y="67.023" width="609.826" height="453.954" fill="#FFFBFB"/>
<rect x="188.057" y="149.253" width="255.976" height="18.023" fill="#120101"/>
<rect x="541.907" y="149.253" width="255.976" height="18.023" fill="#120101"/>
<ellipse cx="492.5" cy="158.264" rx="11.7636" ry="13.5172" fill="#120101"/>
<path d="M240 208H317.185V272H240V208Z" fill="#120101"/>
<path d="M379.781 208H456.966V272H379.781V208Z" fill="#120101"/>
<path d="M522.386 208H599.571V272H522.386V208Z" fill="#120101"/>
<path d="M667.815 208H745V272H667.815V208Z" fill="#DD6AD8"/>
<path d="M240 299H317.185V363H240V299Z" fill="#DD6AD8"/>
<path d="M379.781 299H456.966V363H379.781V299Z" fill="#120101"/>
<path d="M522.386 299H599.571V363H522.386V299Z" fill="#DD6AD8"/>
<path d="M667.815 299H745V363H667.815V299Z" fill="#120101"/>
<path d="M240 390H317.185V454H240V390Z" fill="#120101"/>
<path d="M379.781 390H456.966V454H379.781V390Z" fill="#DD6AD8"/>
<path d="M522.386 390H599.571V454H522.386V390Z" fill="#120101"/>
<path d="M667.815 390H745V454H667.815V390Z" fill="#120101"/>
<path d="M312.547 481C312.547 563.843 242.581 631 156.273 631C69.966 631 0 563.843 0 481C0 398.157 69.966 331 156.273 331C242.581 331 312.547 398.157 312.547 481Z" fill="#DD6AD8"/>
<path d="M283.807 482C283.807 548.826 226.708 603 156.273 603C85.8387 603 28.74 548.826 28.74 482C28.74 415.174 85.8387 361 156.273 361C226.708 361 283.807 415.174 283.807 482Z" fill="#FFFBFB"/>
<path d="M169.969 488C169.969 496.284 162.731 503 153.803 503C144.875 503 137.637 496.284 137.637 488C137.637 479.716 144.875 473 153.803 473C162.731 473 169.969 479.716 169.969 488Z" fill="#011203"/>
<path d="M86.3084 445.72L90.881 438.057L142.761 476.437L138.189 484.1L86.3084 445.72Z" fill="#011203"/>
<path d="M81.4852 436.629L105.977 430.833L86.1765 464.014L81.4852 436.629Z" fill="#011203"/>
<path d="M226.233 418.68L231.359 425.896L153.015 494.893L147.889 487.678L226.233 418.68Z" fill="#011203"/>
<path d="M248.382 405.039L237.445 440.067L215.249 408.822L248.382 405.039Z" fill="#011203"/>
<rect x="250" y="390" width="121" height="64" fill="#FFFCFC"/>
<rect x="240" y="390.288" width="35.6993" height="32" transform="rotate(-30.816 240 390.288)" fill="#FFFBFB"/>
<rect x="262" y="456.775" width="53" height="16.8361" transform="rotate(-24.258 262 456.775)" fill="#FFFBFB"/>
<rect x="313" width="58" height="98" rx="25" fill="#120101"/>
<rect x="597" width="58" height="98" rx="25" fill="#120101"/>
<path d="M511.644 493.132C505.582 509.906 499.872 526.932 494.517 544.212C489.161 561.491 484.463 579.983 480.421 599.687C476.379 619.29 473.145 640.51 470.72 663.347C468.295 686.083 467.032 711.295 466.931 738.982C465.718 739.79 463.899 740.851 461.474 742.165C459.15 743.579 456.523 745.045 453.592 746.56C450.763 748.177 447.782 749.794 444.65 751.411C441.517 753.027 438.486 754.594 435.555 756.109C432.726 757.625 430.149 758.989 427.825 760.202C425.501 761.414 423.733 762.324 422.52 762.93C422.621 755.352 423.126 747.015 424.036 737.921C424.945 728.826 426.158 719.227 427.674 709.122C429.29 699.118 431.109 688.71 433.13 677.898C435.252 667.086 437.526 656.173 439.951 645.159C432.675 654.96 425.703 663.145 419.034 669.713C412.466 676.18 406.605 681.384 401.452 685.325C395.49 689.973 389.932 693.662 384.779 696.39C382.657 697.603 380.08 697.704 377.048 696.693C374.017 695.683 370.986 694.167 367.954 692.146C365.024 690.125 362.295 687.902 359.769 685.477C357.344 683.052 355.626 681.031 354.616 679.414C353.605 677.797 352.494 673.199 351.281 665.621C350.17 658.042 349.361 647.18 348.856 633.033C344.511 638.691 339.812 644.653 334.76 650.918C329.707 657.183 324.554 663.448 319.299 669.713C314.146 675.877 309.043 681.89 303.991 687.75C298.938 693.51 294.24 698.815 289.894 703.665C285.448 708.415 281.507 712.507 278.072 715.943C274.535 719.479 271.807 722.006 269.887 723.521C268.876 722.41 267.664 721.147 266.249 719.732C264.733 718.317 263.218 716.802 261.702 715.185C260.085 713.669 258.519 712.103 257.003 710.486C255.488 708.97 254.174 707.505 253.062 706.091C267.815 693.156 282.771 674.917 297.928 651.373C313.085 627.728 327.535 599.283 341.277 566.038C342.793 567.352 344.208 568.615 345.521 569.827C346.835 571.04 348.098 572.252 349.311 573.465C350.119 557.499 351.332 539.816 352.948 520.415C354.666 500.912 357.091 479.288 360.224 455.542C360.729 455.744 361.891 456.704 363.71 458.422C365.63 460.139 367.853 462.312 370.379 464.939C372.905 467.465 375.583 470.244 378.413 473.276C381.242 476.206 383.92 479.035 386.446 481.764C389.073 484.492 391.347 486.917 393.267 489.039C395.187 491.161 396.5 492.626 397.208 493.435C397.005 494.243 396.551 496.416 395.843 499.952C395.136 503.489 394.277 508.036 393.267 513.594C392.357 519.152 391.347 525.518 390.235 532.692C389.124 539.866 388.113 547.496 387.204 555.579C386.294 563.562 385.486 571.848 384.779 580.437C384.172 588.925 383.819 597.262 383.718 605.447C383.617 608.882 383.516 612.874 383.414 617.421C383.414 621.867 383.414 626.465 383.414 631.214C383.414 635.963 383.465 640.662 383.566 645.31C383.768 649.857 384.021 654 384.324 657.739C384.627 661.377 385.031 664.408 385.536 666.833C386.143 669.157 386.901 670.421 387.81 670.623C388.922 670.926 391.599 669.461 395.843 666.227C400.087 662.994 405.19 658.244 411.152 651.979C417.114 645.714 423.581 638.136 430.553 629.243C437.627 620.25 444.448 610.196 451.016 599.081C454.047 587.258 457.079 575.84 460.11 564.825C463.242 553.811 466.223 543.605 469.053 534.208C471.983 524.81 474.711 516.423 477.238 509.047C479.764 501.569 482.037 495.456 484.058 490.707C486.079 490.808 488.353 490.959 490.879 491.161C493.506 491.262 496.134 491.464 498.761 491.768C501.388 491.97 503.813 492.222 506.036 492.525C508.36 492.727 510.23 492.93 511.644 493.132ZM627.452 669.41C618.357 677.595 609.01 685.325 599.411 692.601C589.811 699.876 580.212 706.899 570.612 713.669C569.197 717.913 567.581 722.41 565.762 727.159C563.943 731.908 561.72 737.314 559.093 743.377C556.162 750.046 552.828 756.564 549.089 762.93C545.35 769.296 541.359 775.258 537.115 780.816C532.972 786.474 528.677 791.628 524.231 796.276C519.785 800.924 515.389 804.916 511.044 808.25C506.8 811.686 502.708 814.313 498.767 816.132C494.725 818.052 491.037 819.012 487.702 819.012C486.085 819.012 484.115 818.406 481.791 817.193C479.467 815.98 477.244 814.414 475.122 812.494C473 810.675 471.231 808.705 469.817 806.583C468.301 804.461 467.543 802.49 467.543 800.672C467.543 794.306 469.261 788.041 472.697 781.877C476.132 775.814 480.881 769.7 486.944 763.536C492.906 757.372 499.929 751.107 508.013 744.741C516.198 738.476 524.989 732.009 534.386 725.34C537.317 717.56 540.146 709.476 542.874 701.089C545.704 692.601 548.432 684.214 551.059 675.928C546.714 681.485 542.521 686.336 538.479 690.479C534.437 694.622 530.698 698.158 527.263 701.089C523.827 703.918 520.846 706.192 518.32 707.909C515.794 709.728 513.874 711.092 512.56 712.002C511.752 712.507 510.792 712.861 509.68 713.063C508.569 713.366 507.558 713.518 506.649 713.518C504.729 713.518 502.607 712.911 500.283 711.699C497.959 710.587 495.837 709.122 493.917 707.303C491.896 705.585 490.228 703.665 488.915 701.543C487.5 699.421 486.793 697.4 486.793 695.481C486.793 693.257 487.551 689.721 489.066 684.87C490.481 679.919 492.451 673.957 494.978 666.985C497.403 660.013 500.283 652.181 503.617 643.491C506.952 634.801 510.539 625.555 514.379 615.754C514.581 615.248 514.733 615.046 514.834 615.147C515.036 615.147 515.339 615.147 515.743 615.147C517.663 615.45 520.29 616.259 523.625 617.572C526.959 618.785 530.193 620.149 533.325 621.665C536.559 623.181 539.338 624.646 541.662 626.06C543.986 627.374 545.148 628.284 545.148 628.789C544.845 629.496 544.036 631.163 542.723 633.791C541.51 636.418 540.045 639.601 538.327 643.34C536.71 646.977 534.942 650.969 533.022 655.314C531.203 659.558 529.486 663.65 527.869 667.591C526.353 671.532 525.09 675.119 524.079 678.353C523.069 681.485 522.564 683.809 522.564 685.325C522.564 685.729 522.766 685.931 523.17 685.931C523.877 685.931 525.393 685.022 527.717 683.203C530.142 681.384 533.123 678.504 536.66 674.564C540.197 670.623 544.188 665.621 548.634 659.558C553.08 653.394 557.779 646.017 562.73 637.428C564.751 630.759 566.419 625.454 567.732 621.513C569.046 617.471 569.905 615.45 570.309 615.45C570.915 615.45 572.482 616.208 575.008 617.724C577.534 619.24 580.212 621.059 583.041 623.181C585.87 625.202 588.397 627.273 590.62 629.395C592.843 631.416 593.954 632.982 593.954 634.094C593.954 634.599 593.904 635.054 593.803 635.458C593.702 635.862 593.55 636.317 593.348 636.822C591.024 643.895 589.003 650.312 587.285 656.072C585.567 661.73 584.001 666.934 582.586 671.684C581.273 676.433 580.06 680.829 578.949 684.87C577.938 688.811 576.928 692.651 575.917 696.39C583.496 690.933 591.024 685.376 598.501 679.717C605.979 673.957 613.355 667.945 620.631 661.68L627.452 669.41ZM486.793 802.339C488.612 802.339 491.138 800.571 494.371 797.034C497.605 793.598 501.091 789.152 504.83 783.696C508.569 778.239 512.307 772.126 516.046 765.355C519.886 758.686 523.271 752.118 526.201 745.651C522.362 748.884 518.067 752.421 513.318 756.261C508.569 760.101 504.122 764.294 499.98 768.841C495.837 773.389 492.35 778.239 489.521 783.392C486.692 788.647 485.277 794.205 485.277 800.065C485.277 801.581 485.782 802.339 486.793 802.339ZM851.481 514.503C846.53 514.301 841.528 514.049 836.476 513.746C831.423 513.442 826.017 513.139 820.258 512.836C814.498 512.533 808.132 512.28 801.159 512.078C794.288 511.876 786.507 511.775 777.817 511.775C766.702 511.775 755.94 512.078 745.532 512.684C735.125 513.19 724.818 514.2 714.612 515.716C704.406 517.232 694.2 519.354 683.994 522.082C673.788 524.81 663.33 528.397 652.619 532.844C656.964 544.969 660.45 556.843 663.077 568.463C665.704 580.084 667.725 591.148 669.14 601.657C670.656 612.166 671.666 622.019 672.172 631.214C672.677 640.409 672.929 648.695 672.929 656.072C672.929 663.044 672.778 669.208 672.475 674.564C672.172 679.818 671.818 684.214 671.414 687.75C671.009 691.994 670.504 695.632 669.898 698.664C674.748 687.144 679.447 674.968 683.994 662.135C688.642 649.2 693.038 636.418 697.181 623.787C701.324 611.055 705.164 598.777 708.7 586.955C712.237 575.132 715.319 564.522 717.946 555.125C720.675 545.727 722.898 537.896 724.616 531.631C726.333 525.265 727.445 521.223 727.95 519.505C730.173 521.324 732.851 523.648 735.983 526.478C739.217 529.307 742.451 532.237 745.684 535.269C748.918 538.3 751.898 541.231 754.627 544.06C757.456 546.788 759.629 549.062 761.144 550.881C758.618 560.278 755.284 570.636 751.141 581.953C746.998 593.27 742.4 604.941 737.348 616.966C732.396 628.991 727.192 641.066 721.736 653.192C716.279 665.217 710.974 676.635 705.821 687.447C700.667 698.259 695.867 708.112 691.421 717.004C687.076 725.896 683.489 733.222 680.66 738.982C679.144 737.466 677.274 735.395 675.051 732.767C672.828 730.14 670.555 727.462 668.231 724.734C665.907 722.107 663.734 719.631 661.713 717.307C659.793 714.983 658.378 713.316 657.469 712.305C657.671 711.092 658.025 709.021 658.53 706.091C659.136 703.059 659.692 699.32 660.197 694.874C660.804 690.327 661.309 685.073 661.713 679.111C662.117 673.149 662.319 666.53 662.319 659.255C662.319 650.969 661.966 642.077 661.258 632.578C660.551 622.979 659.136 613.025 657.014 602.718C654.993 592.411 652.063 581.801 648.223 570.888C644.383 559.975 639.381 548.961 633.218 537.845C633.116 537.845 633.066 537.795 633.066 537.694C632.965 537.593 632.914 537.34 632.914 536.936C632.914 535.926 633.268 534.561 633.975 532.844C634.683 531.025 635.592 529.105 636.704 527.084C637.916 524.962 639.179 522.89 640.493 520.869C641.908 518.747 643.221 516.929 644.434 515.413C644.939 514.807 647.364 513.392 651.709 511.169C656.054 508.845 662.016 506.116 669.595 502.984C677.274 499.851 686.369 496.517 696.878 492.98C707.488 489.443 719.209 486.21 732.043 483.28C744.876 480.248 758.669 477.772 773.422 475.852C788.276 473.933 803.736 472.973 819.803 472.973C820.51 473.781 821.622 475.145 823.137 477.065C824.754 478.884 826.573 481.056 828.594 483.583C830.615 486.008 832.737 488.686 834.96 491.616C837.284 494.445 839.507 497.275 841.629 500.104C843.751 502.832 845.671 505.46 847.389 507.986C849.107 510.512 850.471 512.684 851.481 514.503ZM768.881 715.336C767.365 715.336 765.445 714.781 763.121 713.669C760.797 712.659 758.574 711.345 756.452 709.728C754.33 708.213 752.511 706.495 750.995 704.575C749.479 702.655 748.722 700.786 748.722 698.967C749.732 694.521 751.096 689.418 752.814 683.658C754.532 677.898 756.401 672.037 758.422 666.076C760.342 660.114 762.414 654.303 764.637 648.645C766.759 642.885 768.679 637.782 770.396 633.336C772.215 628.89 773.781 625.303 775.095 622.574C776.409 619.846 777.268 618.482 777.672 618.482C778.278 618.482 779.794 619.139 782.219 620.452C784.644 621.766 787.17 623.383 789.798 625.303C792.526 627.121 794.951 629.092 797.073 631.214C799.195 633.235 800.256 635.003 800.256 636.519C800.256 636.822 800.206 637.226 800.104 637.732C800.003 638.136 799.852 638.691 799.65 639.399C798.841 641.925 797.78 644.906 796.467 648.342C795.254 651.777 793.941 655.364 792.526 659.103C791.111 662.741 789.697 666.429 788.282 670.168C786.867 673.806 785.604 677.241 784.493 680.475C783.381 683.708 782.472 686.538 781.764 688.963C781.057 691.388 780.703 693.156 780.703 694.268C780.703 694.874 781.006 695.177 781.613 695.177C782.724 695.177 784.391 694.521 786.615 693.207C788.838 691.893 791.364 690.175 794.193 688.053C797.124 685.931 800.155 683.607 803.287 681.081C806.42 678.555 809.401 676.079 812.23 673.654C815.161 671.128 817.788 668.854 820.112 666.833C822.436 664.812 824.204 663.297 825.417 662.286C826.326 663.196 827.387 664.358 828.6 665.772C829.914 667.187 831.126 668.501 832.238 669.713C830.015 671.936 827.236 674.665 823.901 677.898C820.567 681.031 816.929 684.264 812.988 687.599C809.148 690.933 805.106 694.268 800.862 697.603C796.719 700.937 792.677 703.918 788.737 706.545C784.796 709.173 781.107 711.295 777.672 712.911C774.236 714.528 771.306 715.336 768.881 715.336ZM828.903 572.252C828.802 572.657 828.398 573.667 827.691 575.284C827.084 576.8 826.326 578.618 825.417 580.74C824.508 582.761 823.447 584.934 822.234 587.258C821.122 589.481 820.011 591.553 818.899 593.472C817.788 595.392 816.727 597.009 815.716 598.323C814.706 599.535 813.898 600.142 813.291 600.142C811.472 600.041 809.249 599.485 806.622 598.474C804.096 597.464 801.62 596.352 799.195 595.14C796.871 593.826 794.85 592.563 793.132 591.35C791.515 590.138 790.707 589.279 790.707 588.774C790.707 586.652 791.313 583.923 792.526 580.589C793.738 577.153 795.153 573.869 796.77 570.737C798.387 567.503 800.003 564.724 801.62 562.4C803.338 560.076 804.652 558.914 805.561 558.914C807.38 558.914 809.603 559.52 812.23 560.733C814.857 561.844 817.384 563.158 819.809 564.674C822.335 566.189 824.457 567.705 826.175 569.221C827.994 570.636 828.903 571.646 828.903 572.252ZM858.617 633.791C857.405 636.923 856.192 640.157 854.98 643.491C853.767 646.826 852.605 650.211 851.493 653.647C857.86 646.068 863.114 640.005 867.257 635.458C871.501 630.911 874.987 627.374 877.715 624.848C880.545 622.322 882.869 620.553 884.688 619.543C886.507 618.532 888.174 617.775 889.69 617.269C890.599 617.269 892.115 617.775 894.237 618.785C896.46 619.795 898.784 621.059 901.209 622.574C903.735 623.989 906.11 625.505 908.333 627.121C910.556 628.637 912.122 629.9 913.032 630.911C913.84 631.719 913.941 632.881 913.335 634.397C912.122 637.63 910.91 640.915 909.697 644.249C908.586 647.483 907.474 650.817 906.363 654.253C913.133 646.472 918.792 640.258 923.339 635.61C927.886 630.86 931.574 627.223 934.403 624.696C937.334 622.17 939.607 620.503 941.224 619.694C942.841 618.886 944.104 618.482 945.013 618.482C946.327 618.482 948.298 619.139 950.925 620.452C953.552 621.766 956.179 623.383 958.807 625.303C961.535 627.223 963.859 629.193 965.779 631.214C967.8 633.235 968.81 635.003 968.81 636.519C968.81 636.822 968.76 637.226 968.659 637.732C968.558 638.136 968.406 638.691 968.204 639.399C967.396 641.925 966.335 644.906 965.021 648.342C963.808 651.777 962.495 655.364 961.08 659.103C959.665 662.741 958.251 666.429 956.836 670.168C955.421 673.806 954.158 677.241 953.047 680.475C951.935 683.708 951.026 686.538 950.319 688.963C949.611 691.388 949.258 693.156 949.258 694.268C949.258 694.874 949.561 695.177 950.167 695.177C951.278 695.177 952.946 694.521 955.169 693.207C957.392 691.893 959.918 690.175 962.747 688.053C965.678 685.931 968.709 683.607 971.842 681.081C974.974 678.555 977.955 676.079 980.785 673.654C983.715 671.128 986.342 668.854 988.666 666.833C990.99 664.812 992.759 663.297 993.971 662.286C994.881 663.196 995.942 664.358 997.154 665.772C998.468 667.187 999.681 668.501 1000.79 669.713C998.569 671.936 995.79 674.665 992.456 677.898C989.121 681.031 985.483 684.264 981.542 687.599C977.703 690.933 973.661 694.268 969.417 697.603C965.274 700.937 961.232 703.918 957.291 706.545C953.35 709.173 949.662 711.295 946.226 712.911C942.79 714.528 939.86 715.336 937.435 715.336C935.919 715.336 933.999 714.781 931.675 713.669C929.351 712.659 927.128 711.345 925.006 709.728C922.884 708.213 921.065 706.495 919.549 704.575C918.034 702.655 917.276 700.786 917.276 698.967C918.185 694.824 919.398 690.125 920.914 684.87C922.429 679.616 924.097 674.26 925.915 668.804C927.734 663.246 929.604 657.79 931.524 652.434C933.545 647.078 935.464 642.127 937.283 637.58C935.262 640.005 932.585 642.936 929.25 646.371C925.915 649.807 922.126 654.354 917.882 660.013C913.638 665.57 909.091 672.492 904.241 680.778C899.39 689.064 894.54 699.169 889.69 711.092C889.083 713.113 887.618 714.124 885.294 714.124C884.081 714.124 882.566 713.871 880.747 713.366C879.029 712.962 877.16 712.255 875.139 711.244C873.219 710.335 871.198 709.173 869.076 707.758C867.055 706.343 865.135 704.625 863.316 702.604C863.316 701.897 863.67 699.775 864.377 696.238C865.185 692.601 866.297 688.003 867.712 682.445C869.227 676.888 870.996 670.673 873.017 663.802C875.038 656.931 877.311 649.857 879.837 642.582C877.412 645.209 874.381 648.594 870.743 652.737C867.105 656.779 863.215 661.73 859.072 667.591C854.929 673.351 850.685 680.071 846.34 687.75C841.995 695.43 837.903 704.12 834.063 713.821C833.456 715.943 832.042 717.004 829.819 717.004C828.101 717.004 826.181 716.499 824.059 715.488C821.836 714.579 819.613 713.316 817.39 711.699C815.066 710.183 812.792 708.465 810.569 706.545C808.245 704.625 806.173 702.705 804.355 700.786C804.355 700.179 804.658 698.461 805.264 695.632C805.769 692.803 806.527 689.266 807.538 685.022C808.548 680.677 809.811 675.776 811.327 670.32C812.742 664.762 814.409 658.952 816.329 652.889C818.249 646.826 820.371 640.662 822.695 634.397C825.019 628.031 827.495 621.917 830.122 616.057C834.366 618.078 839.065 620.553 844.218 623.484C849.473 626.414 854.272 629.85 858.617 633.791ZM1092.8 669.713C1083.51 678.808 1074.71 686.437 1066.43 692.601C1058.24 698.765 1050.41 703.716 1042.94 707.455C1035.46 711.193 1028.28 713.871 1021.41 715.488C1014.64 717.105 1008.02 717.913 1001.56 717.913C998.828 717.913 995.796 716.903 992.462 714.882C989.127 712.861 986.045 710.385 983.216 707.455C980.285 704.625 977.86 701.644 975.94 698.512C974.02 695.379 973.06 692.702 973.06 690.479C973.06 682.193 974.222 674.614 976.547 667.743C978.77 660.77 981.751 654.506 985.489 648.948C989.228 643.39 993.472 638.489 998.221 634.245C1003.07 630.001 1008.07 626.465 1013.23 623.635C1018.48 620.806 1023.69 618.684 1028.84 617.269C1033.99 615.855 1038.74 615.147 1043.09 615.147C1046.22 615.147 1049.3 616.057 1052.33 617.876C1055.47 619.694 1058.29 621.917 1060.82 624.545C1063.35 627.172 1065.37 629.951 1066.88 632.881C1068.5 635.711 1069.31 638.186 1069.31 640.308C1069.31 643.744 1067.84 647.281 1064.91 650.918C1062.08 654.455 1058.04 658.093 1052.79 661.831C1047.53 665.57 1041.22 669.41 1033.84 673.351C1026.46 677.191 1018.33 681.081 1009.44 685.022C1009.13 687.447 1008.98 689.822 1008.98 692.146C1008.98 695.278 1009.64 697.4 1010.95 698.512C1012.37 699.623 1014.94 700.179 1018.68 700.179C1025.35 700.179 1031.62 699.068 1037.48 696.845C1043.44 694.622 1049.15 691.742 1054.61 688.205C1060.06 684.668 1065.32 680.626 1070.37 676.079C1075.42 671.532 1080.42 666.934 1085.38 662.286L1092.8 669.713ZM1039.45 631.82C1037.43 631.82 1035.2 632.932 1032.78 635.155C1030.35 637.277 1027.93 640.106 1025.5 643.643C1023.08 647.18 1020.76 651.272 1018.53 655.92C1016.31 660.467 1014.39 665.217 1012.77 670.168C1016.51 667.743 1020.15 665.166 1023.69 662.438C1027.32 659.709 1030.56 656.88 1033.39 653.95C1036.22 650.918 1038.49 647.836 1040.21 644.704C1041.92 641.571 1042.78 638.439 1042.78 635.306C1042.78 634.397 1042.48 633.589 1041.87 632.881C1041.37 632.174 1040.56 631.82 1039.45 631.82Z" fill="#FBFF48"/>
<rect x="290" y="385" width="18" height="20" fill="#DD6AD8"/>
<rect x="292" y="418" width="18" height="20" fill="#DD6AD8"/>
<rect x="326" y="402" width="18" height="20" fill="#DD6AD8"/>
</svg>
