<svg xmlns="http://www.w3.org/2000/svg" xmlns:xlink="http://www.w3.org/1999/xlink" version="1.1" width="256" height="256" viewBox="0 0 256 256" xml:space="preserve">
<desc>Created with Fabric.js 1.7.22</desc>
<defs>
</defs>
<g transform="translate(128 128) scale(0.72 0.72)" style="">
	<g style="stroke: none; stroke-width: 0; stroke-dasharray: none; stroke-linecap: butt; stroke-linejoin: miter; stroke-miterlimit: 10; fill: none; fill-rule: nonzero; opacity: 1;" transform="translate(-175.05 -175.05000000000004) scale(3.89 3.89)" >
	<path d="M 45 19.584 c 6.045 0 10.964 4.918 10.964 10.964 v 5.008 c 0 6.045 -4.918 10.964 -10.964 10.964 c -6.045 0 -10.964 -4.918 -10.964 -10.964 v -5.008 C 34.036 24.503 38.955 19.584 45 19.584 M 45 16.584 L 45 16.584 c -7.68 0 -13.964 6.284 -13.964 13.964 v 5.008 c 0 7.68 6.284 13.964 13.964 13.964 h 0 c 7.68 0 13.964 -6.284 13.964 -13.964 v -5.008 C 58.964 22.868 52.68 16.584 45 16.584 L 45 16.584 z" style="stroke: none; stroke-width: 1; stroke-dasharray: none; stroke-linecap: butt; stroke-linejoin: miter; stroke-miterlimit: 10; fill: rgb(0,0,0); fill-rule: nonzero; opacity: 1;" transform=" matrix(1 0 0 1 0 0) " stroke-linecap="round" />
	<path d="M 53.304 54.559 c 8.773 1.743 15.282 9.581 15.282 18.594 V 87 H 21.414 V 73.152 c 0 -9.012 6.509 -16.851 15.282 -18.594 c 2.629 1.199 5.417 1.806 8.304 1.806 S 50.675 55.758 53.304 54.559 M 52.863 51.438 c -2.362 1.223 -5.032 1.927 -7.863 1.927 s -5.501 -0.704 -7.863 -1.927 C 26.58 53.014 18.414 62.175 18.414 73.152 v 14.444 c 0 1.322 1.082 2.403 2.403 2.403 h 48.364 c 1.322 0 2.403 -1.082 2.403 -2.403 V 73.152 C 71.586 62.175 63.42 53.014 52.863 51.438 L 52.863 51.438 z" style="stroke: none; stroke-width: 1; stroke-dasharray: none; stroke-linecap: butt; stroke-linejoin: miter; stroke-miterlimit: 10; fill: rgb(0,0,0); fill-rule: nonzero; opacity: 1;" transform=" matrix(1 0 0 1 0 0) " stroke-linecap="round" />
	<path d="M 71.277 34.854 c -2.362 1.223 -5.032 1.927 -7.863 1.927 c -0.004 0 -0.007 0 -0.011 0 c -0.294 4.412 -2.134 8.401 -4.995 11.43 c 10.355 3.681 17.678 13.649 17.678 24.941 v 0.263 h 11.511 c 1.322 0 2.404 -1.082 2.404 -2.404 V 56.568 C 90 45.59 81.834 36.429 71.277 34.854 z" style="stroke: none; stroke-width: 1; stroke-dasharray: none; stroke-linecap: butt; stroke-linejoin: miter; stroke-miterlimit: 10; fill: rgb(0,0,0); fill-rule: nonzero; opacity: 1;" transform=" matrix(1 0 0 1 0 0) " stroke-linecap="round" />
	<path d="M 71.718 37.975 C 80.491 39.717 87 47.556 87 56.568 v 13.848 h -8.042 c -0.938 -9.969 -6.949 -18.812 -15.83 -23.417 c 1.425 -2.257 2.421 -4.767 2.929 -7.391 C 68.006 39.35 69.901 38.804 71.718 37.975 M 71.277 34.854 c -2.362 1.223 -5.032 1.927 -7.863 1.927 c -0.004 0 -0.007 0 -0.011 0 c -0.294 4.412 -2.134 8.401 -4.995 11.43 c 10.355 3.681 17.678 13.649 17.678 24.941 v 0.263 h 11.511 c 1.322 0 2.404 -1.082 2.404 -2.403 V 56.568 C 90 45.59 81.834 36.429 71.277 34.854 L 71.277 34.854 z" style="stroke: none; stroke-width: 1; stroke-dasharray: none; stroke-linecap: butt; stroke-linejoin: miter; stroke-miterlimit: 10; fill: rgb(0,0,0); fill-rule: nonzero; opacity: 1;" transform=" matrix(1 0 0 1 0 0) " stroke-linecap="round" />
	<path d="M 63.414 0 c -7.242 0 -13.237 5.589 -13.898 12.667 c 8 2.023 13.947 9.261 13.947 17.881 v 2.385 c 7.657 -0.027 13.914 -6.298 13.914 -13.961 v -5.008 C 77.378 6.284 71.094 0 63.414 0 z" style="stroke: none; stroke-width: 1; stroke-dasharray: none; stroke-linecap: butt; stroke-linejoin: miter; stroke-miterlimit: 10; fill: rgb(0,0,0); fill-rule: nonzero; opacity: 1;" transform=" matrix(1 0 0 1 0 0) " stroke-linecap="round" />
	<path d="M 63.414 3 c 6.045 0 10.964 4.918 10.964 10.964 v 5.008 c 0 4.988 -3.362 9.218 -7.939 10.536 c -0.405 -8.43 -5.714 -15.771 -13.462 -18.865 C 54.408 6.211 58.615 3 63.414 3 M 63.414 0 c -7.242 0 -13.237 5.589 -13.898 12.667 c 8 2.023 13.947 9.261 13.947 17.881 v 2.385 c 7.657 -0.027 13.914 -6.298 13.914 -13.961 v -5.008 C 77.378 6.284 71.094 0 63.414 0 L 63.414 0 z" style="stroke: none; stroke-width: 1; stroke-dasharray: none; stroke-linecap: butt; stroke-linejoin: miter; stroke-miterlimit: 10; fill: rgb(0,0,0); fill-rule: nonzero; opacity: 1;" transform=" matrix(1 0 0 1 0 0) " stroke-linecap="round" />
	<path d="M 13.915 73.152 c 0 -11.292 7.322 -21.261 17.677 -24.941 c -2.861 -3.029 -4.702 -7.019 -4.995 -11.43 c -0.004 0 -0.007 0 -0.011 0 c -2.831 0 -5.5 -0.704 -7.863 -1.927 C 8.166 36.429 0 45.59 0 56.568 v 14.444 c 0 1.322 1.082 2.404 2.404 2.404 h 11.511 V 73.152 z" style="stroke: none; stroke-width: 1; stroke-dasharray: none; stroke-linecap: butt; stroke-linejoin: miter; stroke-miterlimit: 10; fill: rgb(0,0,0); fill-rule: nonzero; opacity: 1;" transform=" matrix(1 0 0 1 0 0) " stroke-linecap="round" />
	<path d="M 18.282 37.975 c 1.818 0.829 3.712 1.375 5.662 1.633 c 0.508 2.624 1.504 5.133 2.929 7.391 c -8.88 4.606 -14.891 13.448 -15.829 23.417 H 3 V 56.568 C 3 47.556 9.509 39.717 18.282 37.975 M 18.723 34.854 C 8.166 36.429 0 45.59 0 56.568 v 14.444 c 0 1.322 1.082 2.403 2.403 2.403 h 11.511 v -0.263 c 0 -11.292 7.322 -21.261 17.677 -24.941 c -2.861 -3.029 -4.702 -7.019 -4.995 -11.43 c -0.004 0 -0.007 0 -0.011 0 C 23.755 36.781 21.085 36.077 18.723 34.854 L 18.723 34.854 z" style="stroke: none; stroke-width: 1; stroke-dasharray: none; stroke-linecap: butt; stroke-linejoin: miter; stroke-miterlimit: 10; fill: rgb(0,0,0); fill-rule: nonzero; opacity: 1;" transform=" matrix(1 0 0 1 0 0) " stroke-linecap="round" />
	<path d="M 26.536 32.932 v -2.385 c 0 -8.62 5.946 -15.858 13.947 -17.881 C 39.823 5.589 33.828 0 26.586 0 c -7.68 0 -13.964 6.284 -13.964 13.964 v 5.008 C 12.622 26.635 18.879 32.905 26.536 32.932 z" style="stroke: none; stroke-width: 1; stroke-dasharray: none; stroke-linecap: butt; stroke-linejoin: miter; stroke-miterlimit: 10; fill: rgb(0,0,0); fill-rule: nonzero; opacity: 1;" transform=" matrix(1 0 0 1 0 0) " stroke-linecap="round" />
	<path d="M 26.586 3 c 4.799 0 9.007 3.211 10.437 7.642 c -7.748 3.094 -13.056 10.436 -13.462 18.865 c -4.578 -1.318 -7.939 -5.548 -7.939 -10.536 v -5.008 C 15.622 7.918 20.54 3 26.586 3 M 26.586 0 c -7.68 0 -13.964 6.284 -13.964 13.964 v 5.008 c 0 7.663 6.257 13.934 13.914 13.961 v -2.385 c 0 -8.62 5.946 -15.858 13.947 -17.881 C 39.823 5.589 33.828 0 26.586 0 L 26.586 0 z" style="stroke: none; stroke-width: 1; stroke-dasharray: none; stroke-linecap: butt; stroke-linejoin: miter; stroke-miterlimit: 10; fill: rgb(0,0,0); fill-rule: nonzero; opacity: 1;" transform=" matrix(1 0 0 1 0 0) " stroke-linecap="round" />
</g>
</g>
</svg>